<?xml version="1.0" encoding="UTF-8" standalone="no"?><svg xmlns="http://www.w3.org/2000/svg" xmlns:xlink="http://www.w3.org/1999/xlink" contentScriptType="application/ecmascript" contentStyleType="text/css" height="973px" preserveAspectRatio="none" style="width:885px;height:973px;" version="1.1" viewBox="0 0 885 973" width="885px" zoomAndPan="magnify"><defs><filter height="300%" id="flpvmp2jm0cmc" width="300%" x="-1" y="-1"><feGaussianBlur result="blurOut" stdDeviation="2.0"/><feColorMatrix in="blurOut" result="blurOut2" type="matrix" values="0 0 0 0 0 0 0 0 0 0 0 0 0 0 0 0 0 0 .4 0"/><feOffset dx="4.0" dy="4.0" in="blurOut2" result="blurOut3"/><feBlend in="SourceGraphic" in2="blurOut3" mode="normal"/></filter></defs><g><!--MD5=[787494ff879e99315e413996e631a796]
class Attribute--><rect fill="#FEFECE" filter="url(#flpvmp2jm0cmc)" height="137.6328" id="Attribute" style="stroke: #A80036; stroke-width: 1.5;" width="222" x="122" y="716"/><ellipse cx="201.25" cy="732" fill="#A9DCDF" rx="11" ry="11" style="stroke: #A80036; stroke-width: 1.0;"/><path d="M202.8281,733.8125 L198.7813,733.8125 L198.3906,734.7969 L198.7813,734.7969 C199.2344,734.7969 199.375,734.8281 199.5469,734.9531 C199.7656,735.125 199.8906,735.375 199.8906,735.6563 C199.8906,735.9375 199.75,736.2344 199.4844,736.375 C199.3594,736.4688 199.1406,736.5 198.7813,736.5 L196.5156,736.5 C195.7656,736.5 195.3906,736.2188 195.3906,735.6563 C195.3906,735.3594 195.5469,735.0781 195.7969,734.9219 C195.9531,734.8125 196.1094,734.7969 196.5313,734.7969 L199.1719,728.2813 L198.0938,728.2813 C197.6563,728.2813 197.4844,728.25 197.3125,728.1406 C197.0938,727.9688 196.9531,727.7188 196.9531,727.4375 C196.9531,727.1563 197.1094,726.875 197.3594,726.7031 C197.5156,726.6094 197.6406,726.5938 198.0938,726.5938 L201.7656,726.5938 L205.1563,734.7969 C205.625,734.7969 205.7813,734.8281 205.9531,734.9688 C206.1719,735.125 206.3125,735.375 206.3125,735.6563 C206.3125,735.9375 206.1563,736.2344 205.9063,736.375 C205.7656,736.4688 205.5469,736.5 205.1875,736.5 L202.8281,736.5 C202.4063,736.5 202.2031,736.4531 202.0625,736.3281 C201.8438,736.1719 201.7031,735.9219 201.7031,735.6563 C201.7031,735.3594 201.8594,735.0781 202.1094,734.9219 C202.2656,734.8125 202.375,734.7969 202.8281,734.7969 L203.2188,734.7969 Z M202.125,732.1094 L200.7969,728.8438 L199.4531,732.1094 Z "/><text fill="#000000" font-family="sans-serif" font-size="12" font-style="italic" lengthAdjust="spacingAndGlyphs" textLength="55" x="221.75" y="736.1543">Attribute</text><line style="stroke: #A80036; stroke-width: 1.5;" x1="123" x2="343" y1="748" y2="748"/><text fill="#000000" font-family="sans-serif" font-size="11" lengthAdjust="spacingAndGlyphs" textLength="143" x="128" y="762.2104">ArrayList&lt;String&gt; values</text><text fill="#000000" font-family="sans-serif" font-size="11" lengthAdjust="spacingAndGlyphs" textLength="78" x="128" y="775.0151">int valueIndex</text><line style="stroke: #A80036; stroke-width: 1.5;" x1="123" x2="343" y1="781.6094" y2="781.6094"/><text fill="#000000" font-family="sans-serif" font-size="11" lengthAdjust="spacingAndGlyphs" textLength="210" x="128" y="795.8198">setAttributes(ArrayList&lt;String&gt; vals)</text><text fill="#000000" font-family="sans-serif" font-size="11" lengthAdjust="spacingAndGlyphs" textLength="88" x="128" y="808.6245">increaseValue()</text><text fill="#000000" font-family="sans-serif" font-size="11" lengthAdjust="spacingAndGlyphs" textLength="92" x="128" y="821.4292">decreaseValue()</text><text fill="#000000" font-family="sans-serif" font-size="11" lengthAdjust="spacingAndGlyphs" textLength="100" x="128" y="834.2339">getCurrentValue()</text><text fill="#000000" font-family="sans-serif" font-size="11" lengthAdjust="spacingAndGlyphs" textLength="108" x="128" y="847.0386">setValueIndex(int i)</text><!--MD5=[4b3d3453a0e340af623e55f1999ab520]
class Happiness--><rect fill="#FEFECE" filter="url(#flpvmp2jm0cmc)" height="48" id="Happiness" style="stroke: #A80036; stroke-width: 1.5;" width="98" x="6" y="914"/><ellipse cx="21" cy="930" fill="#ADD1B2" rx="11" ry="11" style="stroke: #A80036; stroke-width: 1.0;"/><path d="M23.3438,925.6719 L23.5156,925.75 C23.7344,925.4375 23.9375,925.3438 24.2344,925.3438 C24.5313,925.3438 24.8125,925.4844 24.9688,925.75 C25.0625,925.9063 25.0781,926.0313 25.0781,926.4688 L25.0781,927.8906 C25.0781,928.3125 25.0469,928.5 24.9375,928.6563 C24.7656,928.875 24.5,929.0156 24.2344,929.0156 C24.0156,929.0156 23.7813,928.9063 23.6406,928.7656 C23.5,928.6406 23.4688,928.5156 23.4063,928.1094 C23.3125,927.7031 23.1406,927.4844 22.6563,927.2031 C22.1875,926.9531 21.5781,926.7969 21,926.7969 C19.2656,926.7969 18.0156,928.1094 18.0156,929.8906 L18.0156,930.9844 C18.0156,932.6875 19.3125,933.7813 21.3594,933.7813 C22.125,933.7813 22.8125,933.6563 23.2344,933.3906 C23.4219,933.2969 23.4219,933.2969 23.875,932.8125 C24.0625,932.625 24.2656,932.5469 24.4844,932.5469 C24.9531,932.5469 25.3438,932.9375 25.3438,933.3906 C25.3438,933.7813 25.0156,934.2344 24.4375,934.6406 C23.6875,935.1875 22.5313,935.4844 21.3125,935.4844 C18.4219,935.4844 16.3125,933.5938 16.3125,931.0156 L16.3125,929.8906 C16.3125,927.1719 18.3125,925.0938 20.9375,925.0938 C21.8125,925.0938 22.4063,925.2344 23.3438,925.6719 Z "/><text fill="#000000" font-family="sans-serif" font-size="12" lengthAdjust="spacingAndGlyphs" textLength="66" x="35" y="934.1543">Happiness</text><line style="stroke: #A80036; stroke-width: 1.5;" x1="7" x2="103" y1="946" y2="946"/><line style="stroke: #A80036; stroke-width: 1.5;" x1="7" x2="103" y1="954" y2="954"/><!--MD5=[e732961ec6ed67f9fc95d7838db8a86c]
class Hunger--><rect fill="#FEFECE" filter="url(#flpvmp2jm0cmc)" height="48" id="Hunger" style="stroke: #A80036; stroke-width: 1.5;" width="78" x="139" y="914"/><ellipse cx="154" cy="930" fill="#ADD1B2" rx="11" ry="11" style="stroke: #A80036; stroke-width: 1.0;"/><path d="M156.3438,925.6719 L156.5156,925.75 C156.7344,925.4375 156.9375,925.3438 157.2344,925.3438 C157.5313,925.3438 157.8125,925.4844 157.9688,925.75 C158.0625,925.9063 158.0781,926.0313 158.0781,926.4688 L158.0781,927.8906 C158.0781,928.3125 158.0469,928.5 157.9375,928.6563 C157.7656,928.875 157.5,929.0156 157.2344,929.0156 C157.0156,929.0156 156.7813,928.9063 156.6406,928.7656 C156.5,928.6406 156.4688,928.5156 156.4063,928.1094 C156.3125,927.7031 156.1406,927.4844 155.6563,927.2031 C155.1875,926.9531 154.5781,926.7969 154,926.7969 C152.2656,926.7969 151.0156,928.1094 151.0156,929.8906 L151.0156,930.9844 C151.0156,932.6875 152.3125,933.7813 154.3594,933.7813 C155.125,933.7813 155.8125,933.6563 156.2344,933.3906 C156.4219,933.2969 156.4219,933.2969 156.875,932.8125 C157.0625,932.625 157.2656,932.5469 157.4844,932.5469 C157.9531,932.5469 158.3438,932.9375 158.3438,933.3906 C158.3438,933.7813 158.0156,934.2344 157.4375,934.6406 C156.6875,935.1875 155.5313,935.4844 154.3125,935.4844 C151.4219,935.4844 149.3125,933.5938 149.3125,931.0156 L149.3125,929.8906 C149.3125,927.1719 151.3125,925.0938 153.9375,925.0938 C154.8125,925.0938 155.4063,925.2344 156.3438,925.6719 Z "/><text fill="#000000" font-family="sans-serif" font-size="12" lengthAdjust="spacingAndGlyphs" textLength="46" x="168" y="934.1543">Hunger</text><line style="stroke: #A80036; stroke-width: 1.5;" x1="140" x2="216" y1="946" y2="946"/><line style="stroke: #A80036; stroke-width: 1.5;" x1="140" x2="216" y1="954" y2="954"/><!--MD5=[b47f00dd0504bda501cad5ceb6604e40]
class Sound--><rect fill="#FEFECE" filter="url(#flpvmp2jm0cmc)" height="48" id="Sound" style="stroke: #A80036; stroke-width: 1.5;" width="72" x="252" y="914"/><ellipse cx="267" cy="930" fill="#ADD1B2" rx="11" ry="11" style="stroke: #A80036; stroke-width: 1.0;"/><path d="M269.3438,925.6719 L269.5156,925.75 C269.7344,925.4375 269.9375,925.3438 270.2344,925.3438 C270.5313,925.3438 270.8125,925.4844 270.9688,925.75 C271.0625,925.9063 271.0781,926.0313 271.0781,926.4688 L271.0781,927.8906 C271.0781,928.3125 271.0469,928.5 270.9375,928.6563 C270.7656,928.875 270.5,929.0156 270.2344,929.0156 C270.0156,929.0156 269.7813,928.9063 269.6406,928.7656 C269.5,928.6406 269.4688,928.5156 269.4063,928.1094 C269.3125,927.7031 269.1406,927.4844 268.6563,927.2031 C268.1875,926.9531 267.5781,926.7969 267,926.7969 C265.2656,926.7969 264.0156,928.1094 264.0156,929.8906 L264.0156,930.9844 C264.0156,932.6875 265.3125,933.7813 267.3594,933.7813 C268.125,933.7813 268.8125,933.6563 269.2344,933.3906 C269.4219,933.2969 269.4219,933.2969 269.875,932.8125 C270.0625,932.625 270.2656,932.5469 270.4844,932.5469 C270.9531,932.5469 271.3438,932.9375 271.3438,933.3906 C271.3438,933.7813 271.0156,934.2344 270.4375,934.6406 C269.6875,935.1875 268.5313,935.4844 267.3125,935.4844 C264.4219,935.4844 262.3125,933.5938 262.3125,931.0156 L262.3125,929.8906 C262.3125,927.1719 264.3125,925.0938 266.9375,925.0938 C267.8125,925.0938 268.4063,925.2344 269.3438,925.6719 Z "/><text fill="#000000" font-family="sans-serif" font-size="12" lengthAdjust="spacingAndGlyphs" textLength="40" x="281" y="934.1543">Sound</text><line style="stroke: #A80036; stroke-width: 1.5;" x1="253" x2="323" y1="946" y2="946"/><line style="stroke: #A80036; stroke-width: 1.5;" x1="253" x2="323" y1="954" y2="954"/><!--MD5=[c6091cab4666a5f0889025b8bd25abf1]
class EnergyLevel--><rect fill="#FEFECE" filter="url(#flpvmp2jm0cmc)" height="48" id="EnergyLevel" style="stroke: #A80036; stroke-width: 1.5;" width="106" x="359" y="914"/><ellipse cx="374" cy="930" fill="#ADD1B2" rx="11" ry="11" style="stroke: #A80036; stroke-width: 1.0;"/><path d="M376.3438,925.6719 L376.5156,925.75 C376.7344,925.4375 376.9375,925.3438 377.2344,925.3438 C377.5313,925.3438 377.8125,925.4844 377.9688,925.75 C378.0625,925.9063 378.0781,926.0313 378.0781,926.4688 L378.0781,927.8906 C378.0781,928.3125 378.0469,928.5 377.9375,928.6563 C377.7656,928.875 377.5,929.0156 377.2344,929.0156 C377.0156,929.0156 376.7813,928.9063 376.6406,928.7656 C376.5,928.6406 376.4688,928.5156 376.4063,928.1094 C376.3125,927.7031 376.1406,927.4844 375.6563,927.2031 C375.1875,926.9531 374.5781,926.7969 374,926.7969 C372.2656,926.7969 371.0156,928.1094 371.0156,929.8906 L371.0156,930.9844 C371.0156,932.6875 372.3125,933.7813 374.3594,933.7813 C375.125,933.7813 375.8125,933.6563 376.2344,933.3906 C376.4219,933.2969 376.4219,933.2969 376.875,932.8125 C377.0625,932.625 377.2656,932.5469 377.4844,932.5469 C377.9531,932.5469 378.3438,932.9375 378.3438,933.3906 C378.3438,933.7813 378.0156,934.2344 377.4375,934.6406 C376.6875,935.1875 375.5313,935.4844 374.3125,935.4844 C371.4219,935.4844 369.3125,933.5938 369.3125,931.0156 L369.3125,929.8906 C369.3125,927.1719 371.3125,925.0938 373.9375,925.0938 C374.8125,925.0938 375.4063,925.2344 376.3438,925.6719 Z "/><text fill="#000000" font-family="sans-serif" font-size="12" lengthAdjust="spacingAndGlyphs" textLength="74" x="388" y="934.1543">EnergyLevel</text><line style="stroke: #A80036; stroke-width: 1.5;" x1="360" x2="464" y1="946" y2="946"/><line style="stroke: #A80036; stroke-width: 1.5;" x1="360" x2="464" y1="954" y2="954"/><!--MD5=[0ba60c1c7eece7977c024cb94d0d3fa3]
class Fish--><rect fill="#FEFECE" filter="url(#flpvmp2jm0cmc)" height="124.8281" id="Fish" style="stroke: #A80036; stroke-width: 1.5;" width="132" x="379" y="722.5"/><ellipse cx="428.25" cy="738.5" fill="#ADD1B2" rx="11" ry="11" style="stroke: #A80036; stroke-width: 1.0;"/><path d="M430.5938,734.1719 L430.7656,734.25 C430.9844,733.9375 431.1875,733.8438 431.4844,733.8438 C431.7813,733.8438 432.0625,733.9844 432.2188,734.25 C432.3125,734.4063 432.3281,734.5313 432.3281,734.9688 L432.3281,736.3906 C432.3281,736.8125 432.2969,737 432.1875,737.1563 C432.0156,737.375 431.75,737.5156 431.4844,737.5156 C431.2656,737.5156 431.0313,737.4063 430.8906,737.2656 C430.75,737.1406 430.7188,737.0156 430.6563,736.6094 C430.5625,736.2031 430.3906,735.9844 429.9063,735.7031 C429.4375,735.4531 428.8281,735.2969 428.25,735.2969 C426.5156,735.2969 425.2656,736.6094 425.2656,738.3906 L425.2656,739.4844 C425.2656,741.1875 426.5625,742.2813 428.6094,742.2813 C429.375,742.2813 430.0625,742.1563 430.4844,741.8906 C430.6719,741.7969 430.6719,741.7969 431.125,741.3125 C431.3125,741.125 431.5156,741.0469 431.7344,741.0469 C432.2031,741.0469 432.5938,741.4375 432.5938,741.8906 C432.5938,742.2813 432.2656,742.7344 431.6875,743.1406 C430.9375,743.6875 429.7813,743.9844 428.5625,743.9844 C425.6719,743.9844 423.5625,742.0938 423.5625,739.5156 L423.5625,738.3906 C423.5625,735.6719 425.5625,733.5938 428.1875,733.5938 C429.0625,733.5938 429.6563,733.7344 430.5938,734.1719 Z "/><text fill="#000000" font-family="sans-serif" font-size="12" lengthAdjust="spacingAndGlyphs" textLength="25" x="448.75" y="742.6543">Fish</text><line style="stroke: #A80036; stroke-width: 1.5;" x1="380" x2="510" y1="754.5" y2="754.5"/><text fill="#000000" font-family="sans-serif" font-size="11" lengthAdjust="spacingAndGlyphs" textLength="92" x="385" y="768.7104">Attribute hunger</text><text fill="#000000" font-family="sans-serif" font-size="11" lengthAdjust="spacingAndGlyphs" textLength="120" x="385" y="781.5151">Attribute EnergyLevel</text><line style="stroke: #A80036; stroke-width: 1.5;" x1="380" x2="510" y1="788.1094" y2="788.1094"/><text fill="#000000" font-family="sans-serif" font-size="11" lengthAdjust="spacingAndGlyphs" textLength="33" x="385" y="802.3198">feed()</text><text fill="#000000" font-family="sans-serif" font-size="11" lengthAdjust="spacingAndGlyphs" textLength="76" x="385" y="815.1245">energyLevel()</text><text fill="#000000" font-family="sans-serif" font-size="11" lengthAdjust="spacingAndGlyphs" textLength="39" x="385" y="827.9292">sleep()</text><text fill="#000000" font-family="sans-serif" font-size="11" lengthAdjust="spacingAndGlyphs" textLength="68" x="385" y="840.7339">getPettype()</text><!--MD5=[8d10b9619f233caeee54837354dd5717]
class Cat--><rect fill="#FEFECE" filter="url(#flpvmp2jm0cmc)" height="112.0234" id="Cat" style="stroke: #A80036; stroke-width: 1.5;" width="132" x="546" y="729"/><ellipse cx="597.25" cy="745" fill="#ADD1B2" rx="11" ry="11" style="stroke: #A80036; stroke-width: 1.0;"/><path d="M599.5938,740.6719 L599.7656,740.75 C599.9844,740.4375 600.1875,740.3438 600.4844,740.3438 C600.7813,740.3438 601.0625,740.4844 601.2188,740.75 C601.3125,740.9063 601.3281,741.0313 601.3281,741.4688 L601.3281,742.8906 C601.3281,743.3125 601.2969,743.5 601.1875,743.6563 C601.0156,743.875 600.75,744.0156 600.4844,744.0156 C600.2656,744.0156 600.0313,743.9063 599.8906,743.7656 C599.75,743.6406 599.7188,743.5156 599.6563,743.1094 C599.5625,742.7031 599.3906,742.4844 598.9063,742.2031 C598.4375,741.9531 597.8281,741.7969 597.25,741.7969 C595.5156,741.7969 594.2656,743.1094 594.2656,744.8906 L594.2656,745.9844 C594.2656,747.6875 595.5625,748.7813 597.6094,748.7813 C598.375,748.7813 599.0625,748.6563 599.4844,748.3906 C599.6719,748.2969 599.6719,748.2969 600.125,747.8125 C600.3125,747.625 600.5156,747.5469 600.7344,747.5469 C601.2031,747.5469 601.5938,747.9375 601.5938,748.3906 C601.5938,748.7813 601.2656,749.2344 600.6875,749.6406 C599.9375,750.1875 598.7813,750.4844 597.5625,750.4844 C594.6719,750.4844 592.5625,748.5938 592.5625,746.0156 L592.5625,744.8906 C592.5625,742.1719 594.5625,740.0938 597.1875,740.0938 C598.0625,740.0938 598.6563,740.2344 599.5938,740.6719 Z "/><text fill="#000000" font-family="sans-serif" font-size="12" lengthAdjust="spacingAndGlyphs" textLength="21" x="617.75" y="749.1543">Cat</text><line style="stroke: #A80036; stroke-width: 1.5;" x1="547" x2="677" y1="761" y2="761"/><line style="stroke: #A80036; stroke-width: 1.5;" x1="547" x2="677" y1="769" y2="769"/><text fill="#000000" font-family="sans-serif" font-size="11" lengthAdjust="spacingAndGlyphs" textLength="120" x="552" y="783.2104">Attribute Happinees()</text><text fill="#000000" font-family="sans-serif" font-size="11" lengthAdjust="spacingAndGlyphs" textLength="33" x="552" y="796.0151">feed()</text><text fill="#000000" font-family="sans-serif" font-size="11" lengthAdjust="spacingAndGlyphs" textLength="31" x="552" y="808.8198">play()</text><text fill="#000000" font-family="sans-serif" font-size="11" lengthAdjust="spacingAndGlyphs" textLength="39" x="552" y="821.6245">sleep()</text><text fill="#000000" font-family="sans-serif" font-size="11" lengthAdjust="spacingAndGlyphs" textLength="71" x="552" y="834.4292">getPetType()</text><!--MD5=[9cfa872a99fa8e70a8c023fe905238fd]
class Pet--><rect fill="#FEFECE" filter="url(#flpvmp2jm0cmc)" height="124.8281" id="Pet" style="stroke: #A80036; stroke-width: 1.5;" width="123" x="550.5" y="531"/><ellipse cx="597.75" cy="547" fill="#A9DCDF" rx="11" ry="11" style="stroke: #A80036; stroke-width: 1.0;"/><path d="M599.3281,548.8125 L595.2813,548.8125 L594.8906,549.7969 L595.2813,549.7969 C595.7344,549.7969 595.875,549.8281 596.0469,549.9531 C596.2656,550.125 596.3906,550.375 596.3906,550.6563 C596.3906,550.9375 596.25,551.2344 595.9844,551.375 C595.8594,551.4688 595.6406,551.5 595.2813,551.5 L593.0156,551.5 C592.2656,551.5 591.8906,551.2188 591.8906,550.6563 C591.8906,550.3594 592.0469,550.0781 592.2969,549.9219 C592.4531,549.8125 592.6094,549.7969 593.0313,549.7969 L595.6719,543.2813 L594.5938,543.2813 C594.1563,543.2813 593.9844,543.25 593.8125,543.1406 C593.5938,542.9688 593.4531,542.7188 593.4531,542.4375 C593.4531,542.1563 593.6094,541.875 593.8594,541.7031 C594.0156,541.6094 594.1406,541.5938 594.5938,541.5938 L598.2656,541.5938 L601.6563,549.7969 C602.125,549.7969 602.2813,549.8281 602.4531,549.9688 C602.6719,550.125 602.8125,550.375 602.8125,550.6563 C602.8125,550.9375 602.6563,551.2344 602.4063,551.375 C602.2656,551.4688 602.0469,551.5 601.6875,551.5 L599.3281,551.5 C598.9063,551.5 598.7031,551.4531 598.5625,551.3281 C598.3438,551.1719 598.2031,550.9219 598.2031,550.6563 C598.2031,550.3594 598.3594,550.0781 598.6094,549.9219 C598.7656,549.8125 598.875,549.7969 599.3281,549.7969 L599.7188,549.7969 Z M598.625,547.1094 L597.2969,543.8438 L595.9531,547.1094 Z "/><text fill="#000000" font-family="sans-serif" font-size="12" font-style="italic" lengthAdjust="spacingAndGlyphs" textLength="20" x="618.25" y="551.1543">Pet</text><line style="stroke: #A80036; stroke-width: 1.5;" x1="551.5" x2="672.5" y1="563" y2="563"/><text fill="#000000" font-family="sans-serif" font-size="11" lengthAdjust="spacingAndGlyphs" textLength="111" x="556.5" y="577.2104">Attribute happiness</text><line style="stroke: #A80036; stroke-width: 1.5;" x1="551.5" x2="672.5" y1="583.8047" y2="583.8047"/><text fill="#000000" font-family="sans-serif" font-size="11" lengthAdjust="spacingAndGlyphs" textLength="33" x="556.5" y="598.0151">feed()</text><text fill="#000000" font-family="sans-serif" font-size="11" lengthAdjust="spacingAndGlyphs" textLength="27" x="556.5" y="610.8198">run()</text><text fill="#000000" font-family="sans-serif" font-size="11" lengthAdjust="spacingAndGlyphs" textLength="39" x="556.5" y="623.6245">sleep()</text><text fill="#000000" font-family="sans-serif" font-size="11" lengthAdjust="spacingAndGlyphs" textLength="71" x="556.5" y="636.4292">getPetType()</text><text fill="#000000" font-family="sans-serif" font-size="11" lengthAdjust="spacingAndGlyphs" textLength="86" x="556.5" y="649.2339">getHappiness()</text><!--MD5=[58a3e52a44fafcdf5e80441f1dbcf996]
class Monkey--><rect fill="#FEFECE" filter="url(#flpvmp2jm0cmc)" height="112.0234" id="Monkey" style="stroke: #A80036; stroke-width: 1.5;" width="86" x="713" y="729"/><ellipse cx="731.15" cy="745" fill="#ADD1B2" rx="11" ry="11" style="stroke: #A80036; stroke-width: 1.0;"/><path d="M733.4938,740.6719 L733.6656,740.75 C733.8844,740.4375 734.0875,740.3438 734.3844,740.3438 C734.6813,740.3438 734.9625,740.4844 735.1188,740.75 C735.2125,740.9063 735.2281,741.0313 735.2281,741.4688 L735.2281,742.8906 C735.2281,743.3125 735.1969,743.5 735.0875,743.6563 C734.9156,743.875 734.65,744.0156 734.3844,744.0156 C734.1656,744.0156 733.9313,743.9063 733.7906,743.7656 C733.65,743.6406 733.6188,743.5156 733.5563,743.1094 C733.4625,742.7031 733.2906,742.4844 732.8063,742.2031 C732.3375,741.9531 731.7281,741.7969 731.15,741.7969 C729.4156,741.7969 728.1656,743.1094 728.1656,744.8906 L728.1656,745.9844 C728.1656,747.6875 729.4625,748.7813 731.5094,748.7813 C732.275,748.7813 732.9625,748.6563 733.3844,748.3906 C733.5719,748.2969 733.5719,748.2969 734.025,747.8125 C734.2125,747.625 734.4156,747.5469 734.6344,747.5469 C735.1031,747.5469 735.4938,747.9375 735.4938,748.3906 C735.4938,748.7813 735.1656,749.2344 734.5875,749.6406 C733.8375,750.1875 732.6813,750.4844 731.4625,750.4844 C728.5719,750.4844 726.4625,748.5938 726.4625,746.0156 L726.4625,744.8906 C726.4625,742.1719 728.4625,740.0938 731.0875,740.0938 C731.9625,740.0938 732.5563,740.2344 733.4938,740.6719 Z "/><text fill="#000000" font-family="sans-serif" font-size="12" lengthAdjust="spacingAndGlyphs" textLength="47" x="745.85" y="749.1543">Monkey</text><line style="stroke: #A80036; stroke-width: 1.5;" x1="714" x2="798" y1="761" y2="761"/><line style="stroke: #A80036; stroke-width: 1.5;" x1="714" x2="798" y1="769" y2="769"/><text fill="#000000" font-family="sans-serif" font-size="11" lengthAdjust="spacingAndGlyphs" textLength="33" x="719" y="783.2104">feed()</text><text fill="#000000" font-family="sans-serif" font-size="11" lengthAdjust="spacingAndGlyphs" textLength="38" x="719" y="796.0151">Playe()</text><text fill="#000000" font-family="sans-serif" font-size="11" lengthAdjust="spacingAndGlyphs" textLength="74" x="719" y="808.8198">giveBanana()</text><text fill="#000000" font-family="sans-serif" font-size="11" lengthAdjust="spacingAndGlyphs" textLength="40" x="719" y="821.6245">Sleep()</text><text fill="#000000" font-family="sans-serif" font-size="11" lengthAdjust="spacingAndGlyphs" textLength="71" x="719" y="834.4292">getPetType()</text><!--MD5=[3fd616f346a44cd59a91eb10b19e157c]
class User--><rect fill="#FEFECE" filter="url(#flpvmp2jm0cmc)" height="240.0703" id="User" style="stroke: #A80036; stroke-width: 1.5;" width="132" x="546" y="231"/><ellipse cx="593.25" cy="247" fill="#ADD1B2" rx="11" ry="11" style="stroke: #A80036; stroke-width: 1.0;"/><path d="M595.5938,242.6719 L595.7656,242.75 C595.9844,242.4375 596.1875,242.3438 596.4844,242.3438 C596.7813,242.3438 597.0625,242.4844 597.2188,242.75 C597.3125,242.9063 597.3281,243.0313 597.3281,243.4688 L597.3281,244.8906 C597.3281,245.3125 597.2969,245.5 597.1875,245.6563 C597.0156,245.875 596.75,246.0156 596.4844,246.0156 C596.2656,246.0156 596.0313,245.9063 595.8906,245.7656 C595.75,245.6406 595.7188,245.5156 595.6563,245.1094 C595.5625,244.7031 595.3906,244.4844 594.9063,244.2031 C594.4375,243.9531 593.8281,243.7969 593.25,243.7969 C591.5156,243.7969 590.2656,245.1094 590.2656,246.8906 L590.2656,247.9844 C590.2656,249.6875 591.5625,250.7813 593.6094,250.7813 C594.375,250.7813 595.0625,250.6563 595.4844,250.3906 C595.6719,250.2969 595.6719,250.2969 596.125,249.8125 C596.3125,249.625 596.5156,249.5469 596.7344,249.5469 C597.2031,249.5469 597.5938,249.9375 597.5938,250.3906 C597.5938,250.7813 597.2656,251.2344 596.6875,251.6406 C595.9375,252.1875 594.7813,252.4844 593.5625,252.4844 C590.6719,252.4844 588.5625,250.5938 588.5625,248.0156 L588.5625,246.8906 C588.5625,244.1719 590.5625,242.0938 593.1875,242.0938 C594.0625,242.0938 594.6563,242.2344 595.5938,242.6719 Z "/><text fill="#000000" font-family="sans-serif" font-size="12" lengthAdjust="spacingAndGlyphs" textLength="29" x="613.75" y="251.1543">User</text><line style="stroke: #A80036; stroke-width: 1.5;" x1="547" x2="677" y1="263" y2="263"/><text fill="#000000" font-family="sans-serif" font-size="11" lengthAdjust="spacingAndGlyphs" textLength="69" x="552" y="277.2104">string name</text><text fill="#000000" font-family="sans-serif" font-size="11" lengthAdjust="spacingAndGlyphs" textLength="58" x="552" y="290.0151">string age</text><text fill="#000000" font-family="sans-serif" font-size="11" lengthAdjust="spacingAndGlyphs" textLength="115" x="552" y="302.8198">ArrayList&lt;Pet&gt; pets</text><text fill="#000000" font-family="sans-serif" font-size="11" lengthAdjust="spacingAndGlyphs" textLength="96" x="552" y="315.6245">scanner scanner</text><line style="stroke: #A80036; stroke-width: 1.5;" x1="547" x2="677" y1="322.2188" y2="322.2188"/><text fill="#000000" font-family="sans-serif" font-size="11" lengthAdjust="spacingAndGlyphs" textLength="34" x="552" y="336.4292">user()</text><text fill="#000000" font-family="sans-serif" font-size="11" lengthAdjust="spacingAndGlyphs" textLength="97" x="552" y="349.2339">putPetsToSleep()</text><text fill="#000000" font-family="sans-serif" font-size="11" lengthAdjust="spacingAndGlyphs" textLength="58" x="552" y="362.0386">feedPets()</text><text fill="#000000" font-family="sans-serif" font-size="11" lengthAdjust="spacingAndGlyphs" textLength="96" x="552" y="374.8433">getHungerLevel()</text><text fill="#000000" font-family="sans-serif" font-size="11" lengthAdjust="spacingAndGlyphs" textLength="64" x="552" y="387.6479">getAllPets()</text><text fill="#000000" font-family="sans-serif" font-size="11" lengthAdjust="spacingAndGlyphs" textLength="35" x="552" y="400.4526">start()</text><text fill="#000000" font-family="sans-serif" font-size="11" lengthAdjust="spacingAndGlyphs" textLength="120" x="552" y="413.2573">createPetsWithInput()</text><text fill="#000000" font-family="sans-serif" font-size="11" lengthAdjust="spacingAndGlyphs" textLength="93" x="552" y="426.062">createNewPets()</text><text fill="#000000" font-family="sans-serif" font-size="11" lengthAdjust="spacingAndGlyphs" textLength="84" x="552" y="438.8667">monkeyNoise()</text><text fill="#000000" font-family="sans-serif" font-size="11" lengthAdjust="spacingAndGlyphs" textLength="62" x="552" y="451.6714">walgkDog()</text><text fill="#000000" font-family="sans-serif" font-size="11" lengthAdjust="spacingAndGlyphs" textLength="74" x="552" y="464.4761">growAllPets()</text><!--MD5=[84718776d214be480e4c259efcb737fc]
class Main--><rect fill="#FEFECE" filter="url(#flpvmp2jm0cmc)" height="60.8047" id="Main" style="stroke: #A80036; stroke-width: 1.5;" width="61" x="517.5" y="59"/><ellipse cx="532.5" cy="75" fill="#ADD1B2" rx="11" ry="11" style="stroke: #A80036; stroke-width: 1.0;"/><path d="M534.8438,70.6719 L535.0156,70.75 C535.2344,70.4375 535.4375,70.3438 535.7344,70.3438 C536.0313,70.3438 536.3125,70.4844 536.4688,70.75 C536.5625,70.9063 536.5781,71.0313 536.5781,71.4688 L536.5781,72.8906 C536.5781,73.3125 536.5469,73.5 536.4375,73.6563 C536.2656,73.875 536,74.0156 535.7344,74.0156 C535.5156,74.0156 535.2813,73.9063 535.1406,73.7656 C535,73.6406 534.9688,73.5156 534.9063,73.1094 C534.8125,72.7031 534.6406,72.4844 534.1563,72.2031 C533.6875,71.9531 533.0781,71.7969 532.5,71.7969 C530.7656,71.7969 529.5156,73.1094 529.5156,74.8906 L529.5156,75.9844 C529.5156,77.6875 530.8125,78.7813 532.8594,78.7813 C533.625,78.7813 534.3125,78.6563 534.7344,78.3906 C534.9219,78.2969 534.9219,78.2969 535.375,77.8125 C535.5625,77.625 535.7656,77.5469 535.9844,77.5469 C536.4531,77.5469 536.8438,77.9375 536.8438,78.3906 C536.8438,78.7813 536.5156,79.2344 535.9375,79.6406 C535.1875,80.1875 534.0313,80.4844 532.8125,80.4844 C529.9219,80.4844 527.8125,78.5938 527.8125,76.0156 L527.8125,74.8906 C527.8125,72.1719 529.8125,70.0938 532.4375,70.0938 C533.3125,70.0938 533.9063,70.2344 534.8438,70.6719 Z "/><text fill="#000000" font-family="sans-serif" font-size="12" lengthAdjust="spacingAndGlyphs" textLength="29" x="546.5" y="79.1543">Main</text><line style="stroke: #A80036; stroke-width: 1.5;" x1="518.5" x2="577.5" y1="91" y2="91"/><line style="stroke: #A80036; stroke-width: 1.5;" x1="518.5" x2="577.5" y1="99" y2="99"/><text fill="#000000" font-family="sans-serif" font-size="11" lengthAdjust="spacingAndGlyphs" textLength="36" x="523.5" y="113.2104">main()</text><!--MD5=[7a05b1f423ca7d69fda079a6817e1f4d]
class PlayWithPets--><rect fill="#FEFECE" filter="url(#flpvmp2jm0cmc)" height="163.2422" id="PlayWithPets" style="stroke: #A80036; stroke-width: 1.5;" width="125" x="613.5" y="8"/><ellipse cx="634.8" cy="24" fill="#B4A7E5" rx="11" ry="11" style="stroke: #A80036; stroke-width: 1.0;"/><path d="M635.7531,20.7813 L635.7531,27.2969 L637.4719,27.2969 C637.925,27.2969 638.0656,27.3281 638.2375,27.4531 C638.4719,27.625 638.5813,27.875 638.5813,28.1563 C638.5813,28.7188 638.2219,29 637.4719,29 L632.3313,29 C631.925,29 631.7219,28.9531 631.5656,28.8281 C631.3469,28.6719 631.2063,28.4063 631.2063,28.1563 C631.2063,27.8594 631.3625,27.5781 631.6125,27.4219 C631.7688,27.3125 631.8938,27.2969 632.3313,27.2969 L634.05,27.2969 L634.05,20.7813 L632.3313,20.7813 C631.9094,20.7813 631.7219,20.75 631.5656,20.6406 C631.3469,20.4688 631.2063,20.2188 631.2063,19.9375 C631.2063,19.6563 631.3625,19.3594 631.6125,19.2031 C631.7688,19.1094 631.8938,19.0938 632.3313,19.0938 L637.4719,19.0938 C637.925,19.0938 638.0656,19.125 638.2375,19.2344 C638.4719,19.4063 638.5813,19.6719 638.5813,19.9375 C638.5813,20.2344 638.4406,20.5156 638.175,20.6719 C638.05,20.75 637.8625,20.7813 637.4719,20.7813 Z "/><text fill="#000000" font-family="sans-serif" font-size="12" font-style="italic" lengthAdjust="spacingAndGlyphs" textLength="79" x="650.2" y="28.1543">PlayWithPets</text><line style="stroke: #A80036; stroke-width: 1.5;" x1="614.5" x2="737.5" y1="40" y2="40"/><text fill="#000000" font-family="sans-serif" font-size="11" lengthAdjust="spacingAndGlyphs" textLength="86" x="619.5" y="54.2104">ArrayList&lt;Pet&gt;</text><line style="stroke: #A80036; stroke-width: 1.5;" x1="614.5" x2="737.5" y1="60.8047" y2="60.8047"/><text fill="#000000" font-family="sans-serif" font-size="11" lengthAdjust="spacingAndGlyphs" textLength="95" x="619.5" y="75.0151">CreateNewPets()</text><text fill="#000000" font-family="sans-serif" font-size="11" lengthAdjust="spacingAndGlyphs" textLength="58" x="619.5" y="87.8198">feedPets()</text><text fill="#000000" font-family="sans-serif" font-size="11" lengthAdjust="spacingAndGlyphs" textLength="113" x="619.5" y="100.6245">monkeyMakeNoise()</text><text fill="#000000" font-family="sans-serif" font-size="11" lengthAdjust="spacingAndGlyphs" textLength="96" x="619.5" y="113.4292">getHungerLevel()</text><text fill="#000000" font-family="sans-serif" font-size="11" lengthAdjust="spacingAndGlyphs" textLength="64" x="619.5" y="126.2339">getAllpets()</text><text fill="#000000" font-family="sans-serif" font-size="11" lengthAdjust="spacingAndGlyphs" textLength="55" x="619.5" y="139.0386">walkDog()</text><text fill="#000000" font-family="sans-serif" font-size="11" lengthAdjust="spacingAndGlyphs" textLength="74" x="619.5" y="151.8433">growAllPets()</text><text fill="#000000" font-family="sans-serif" font-size="11" lengthAdjust="spacingAndGlyphs" textLength="60" x="619.5" y="164.6479">savePets()</text><!--MD5=[1c44201a84307e68bbc50e05181386cc]
class g--><rect fill="#FEFECE" filter="url(#flpvmp2jm0cmc)" height="48" id="g" style="stroke: #A80036; stroke-width: 1.5;" width="40" x="834" y="761"/><ellipse cx="849" cy="777" fill="#ADD1B2" rx="11" ry="11" style="stroke: #A80036; stroke-width: 1.0;"/><path d="M851.3438,772.6719 L851.5156,772.75 C851.7344,772.4375 851.9375,772.3438 852.2344,772.3438 C852.5313,772.3438 852.8125,772.4844 852.9688,772.75 C853.0625,772.9063 853.0781,773.0313 853.0781,773.4688 L853.0781,774.8906 C853.0781,775.3125 853.0469,775.5 852.9375,775.6563 C852.7656,775.875 852.5,776.0156 852.2344,776.0156 C852.0156,776.0156 851.7813,775.9063 851.6406,775.7656 C851.5,775.6406 851.4688,775.5156 851.4063,775.1094 C851.3125,774.7031 851.1406,774.4844 850.6563,774.2031 C850.1875,773.9531 849.5781,773.7969 849,773.7969 C847.2656,773.7969 846.0156,775.1094 846.0156,776.8906 L846.0156,777.9844 C846.0156,779.6875 847.3125,780.7813 849.3594,780.7813 C850.125,780.7813 850.8125,780.6563 851.2344,780.3906 C851.4219,780.2969 851.4219,780.2969 851.875,779.8125 C852.0625,779.625 852.2656,779.5469 852.4844,779.5469 C852.9531,779.5469 853.3438,779.9375 853.3438,780.3906 C853.3438,780.7813 853.0156,781.2344 852.4375,781.6406 C851.6875,782.1875 850.5313,782.4844 849.3125,782.4844 C846.4219,782.4844 844.3125,780.5938 844.3125,778.0156 L844.3125,776.8906 C844.3125,774.1719 846.3125,772.0938 848.9375,772.0938 C849.8125,772.0938 850.4063,772.2344 851.3438,772.6719 Z "/><text fill="#000000" font-family="sans-serif" font-size="12" lengthAdjust="spacingAndGlyphs" textLength="8" x="863" y="781.1543">g</text><line style="stroke: #A80036; stroke-width: 1.5;" x1="835" x2="873" y1="793" y2="793"/><line style="stroke: #A80036; stroke-width: 1.5;" x1="835" x2="873" y1="801" y2="801"/><!--MD5=[bf98950c9594fb4be1d01e8ed02fb1b5]
reverse link Attribute to Happiness--><path d="M137.163,867.2997 C117.016,884.3909 97.3388,901.0834 82.2941,913.846 " fill="none" id="Attribute&lt;-Happiness" style="stroke: #A80036; stroke-width: 1.0;"/><polygon fill="none" points="132.813,861.811,152.593,854.211,141.869,872.4869,132.813,861.811" style="stroke: #A80036; stroke-width: 1.0;"/><!--MD5=[f81a4d63e5094f2057ef3fda1a4165ca]
reverse link Attribute to Hunger--><path d="M201.131,873.4936 C195.696,888.4155 190.495,902.6959 186.406,913.9225 " fill="none" id="Attribute&lt;-Hunger" style="stroke: #A80036; stroke-width: 1.0;"/><polygon fill="none" points="194.653,870.8276,208.075,854.431,207.807,875.6191,194.653,870.8276" style="stroke: #A80036; stroke-width: 1.0;"/><!--MD5=[c88233113cadc753891f77d75cd85026]
reverse link Attribute to Sound--><path d="M264.869,873.4936 C270.304,888.4155 275.505,902.6959 279.594,913.9225 " fill="none" id="Attribute&lt;-Sound" style="stroke: #A80036; stroke-width: 1.0;"/><polygon fill="none" points="258.193,875.6191,257.925,854.431,271.347,870.8276,258.193,875.6191" style="stroke: #A80036; stroke-width: 1.0;"/><!--MD5=[7b0f606d1fdab2f1894b854d6457ee14]
reverse link Attribute to EnergyLevel--><path d="M329.375,867.2997 C349.636,884.3909 369.423,901.0834 384.553,913.846 " fill="none" id="Attribute&lt;-EnergyLevel" style="stroke: #A80036; stroke-width: 1.0;"/><polygon fill="none" points="324.633,872.4572,313.859,854.211,333.66,861.756,324.633,872.4572" style="stroke: #A80036; stroke-width: 1.0;"/><!--MD5=[8c562de2e0f54a191f5fa470d0ecd933]
reverse link Pet to Monkey--><path d="M670.95,672.077 C685.42,691.119 700.618,711.119 714.099,728.86 " fill="none" id="Pet&lt;-Monkey" style="stroke: #A80036; stroke-width: 1.0;"/><polygon fill="none" points="665.28,676.185,658.753,656.025,676.427,667.714,665.28,676.185" style="stroke: #A80036; stroke-width: 1.0;"/><!--MD5=[be012ed37fddef7e7a0f00571bb17277]
reverse link Pet to Cat--><path d="M612,676.109 C612,693.922 612,712.367 612,728.86 " fill="none" id="Pet&lt;-Cat" style="stroke: #A80036; stroke-width: 1.0;"/><polygon fill="none" points="605,676.025,612,656.025,619,676.025,605,676.025" style="stroke: #A80036; stroke-width: 1.0;"/><!--MD5=[6e5e1927a395ef6fc9502b21958881bc]
reverse link Pet to g--><path d="M692.2,629.29 C733.212,650.024 781.768,679.45 817,716 C829.406,728.87 838.908,746.721 845.175,760.904 " fill="none" id="Pet&lt;-g" style="stroke: #A80036; stroke-width: 1.0;"/><polygon fill="none" points="688.86,635.449,673.962,620.38,695.005,622.87,688.86,635.449" style="stroke: #A80036; stroke-width: 1.0;"/><!--MD5=[0dbd6b38a8e5c7448f6d3e52a56b7759]
reverse link Pet to Fish--><path d="M544.503,671.091 C529.448,688.174 513.673,706.075 499.234,722.459 " fill="none" id="Pet&lt;-Fish" style="stroke: #A80036; stroke-width: 1.0;"/><polygon fill="none" points="539.305,666.402,557.78,656.025,549.808,675.658,539.305,666.402" style="stroke: #A80036; stroke-width: 1.0;"/><!--MD5=[800dbe372442612ec953fdcdc3b6e539]
reverse link PlayWithPets to User--><path d="M651.287,190.705 C648.049,203.831 644.707,217.384 641.402,230.785 " fill="none" id="PlayWithPets&lt;-User" style="stroke: #A80036; stroke-width: 1.0;"/><polygon fill="none" points="644.515,188.927,656.101,171.185,658.108,192.279,644.515,188.927" style="stroke: #A80036; stroke-width: 1.0;"/><!--MD5=[f2872c84e50d1cdbffdc4f62a9edef96]
link Main to User--><path d="M555.279,120.015 C561.723,146.141 571.585,186.13 581.289,225.477 " fill="none" id="Main-&gt;User" style="stroke: #A80036; stroke-width: 1.0;"/><polygon fill="#A80036" points="582.595,230.772,584.3243,221.0762,581.3981,225.9174,576.5569,222.9912,582.595,230.772" style="stroke: #A80036; stroke-width: 1.0;"/><!--MD5=[534d44902223f1af19de34b404123b5e]
link Pet to Attribute--><path d="M550.307,623.571 C499.303,647.794 425.112,683.468 361,716 C356.963,718.049 352.86,720.145 348.723,722.273 " fill="none" id="Pet-&gt;Attribute" style="stroke: #A80036; stroke-width: 1.0;"/><polygon fill="#A80036" points="344.22,724.593,354.0525,724.0264,348.6647,722.3028,350.3882,716.9149,344.22,724.593" style="stroke: #A80036; stroke-width: 1.0;"/><!--MD5=[93548ce508d075e67ede6c473b7474c3]
link User to Pet--><path d="M612,471.193 C612,489.926 612,508.692 612,525.674 " fill="none" id="User-&gt;Pet" style="stroke: #A80036; stroke-width: 1.0;"/><polygon fill="#A80036" points="612,530.886,616,521.886,612,525.886,608,521.886,612,530.886" style="stroke: #A80036; stroke-width: 1.0;"/><!--MD5=[e06e0fe57c31dd595358a083f9e96411]
@startuml
abstract class Attribute {
    ArrayList<String> values
    int valueIndex
    
    setAttributes(ArrayList<String> vals)
    increaseValue() 
    decreaseValue() 
	getCurrentValue() 
	setValueIndex(int i) 
    
}

class Happiness{
}

class Hunger{
}

class Sound{
}

class EnergyLevel{
}

Attribute <|- - Happiness
Attribute <|- - Hunger
Attribute <|- - Sound
Attribute <|- - EnergyLevel

class Fish{

    Attribute hunger
    Attribute EnergyLevel
    feed()
    energyLevel()
    sleep()
    getPettype()
}
class Cat{

Attribute Happinees()
feed()
play()
sleep()
getPetType()
}

abstract class Pet{

Attribute happiness
feed()
run()
sleep()
getPetType()
getHappiness()
}

class Monkey{

feed()
Playe()
giveBanana()
Sleep()
getPetType()
}

class User{

    string name
    string age
    ArrayList<Pet> pets
    scanner scanner
    user()
    putPetsToSleep()
    feedPets()
    getHungerLevel()
    getAllPets()
    start()
    createPetsWithInput()
    createNewPets()
    monkeyNoise()
    walgkDog()
    growAllPets()

}


class Main{
    main()
}

interface  PlayWithPets{
CreateNewPets()
feedPets()
monkeyMakeNoise()
getHungerLevel()
getAllpets()
walkDog()
growAllPets()
savePets()
ArrayList<Pet>
}

Pet <|- -Monkey
Pet <|- -Cat
Pet <|- -Dog
Pet <|- -Fish
PlayWithPets <|- - User
Main - -> User
Pet - -> Attribute
User - -> Pet
@enduml

PlantUML version 1.2020.07beta8(Unknown compile time)
(GPL source distribution)
Java Runtime: Java(TM) SE Runtime Environment
JVM: Java HotSpot(TM) 64-Bit Server VM
Java Version: 1.7.0_25-b15
Operating System: Linux
Default Encoding: UTF-8
Language: en
Country: US
--></g></svg>